<?xml version="1.0" encoding="utf-8"?>
<!-- Generator: Adobe Illustrator 21.1.0, SVG Export Plug-In . SVG Version: 6.00 Build 0)  -->
<svg version="1.1" id="Layer_1" xmlns="http://www.w3.org/2000/svg" xmlns:xlink="http://www.w3.org/1999/xlink" x="0px" y="0px"
	 viewBox="0 0 47.249 48.94" style="enable-background:new 0 0 47.249 48.94;" xml:space="preserve">
<style type="text/css">
	.st0{fill:#FFFFFF;}
</style>
<path class="st0" d="M44.953,43.191L34.109,31.914c2.789-3.317,4.317-7.489,4.317-11.832c0-10.145-8.254-18.399-18.403-18.399
	c-10.144,0-18.398,8.254-18.398,18.399c0,10.148,8.254,18.402,18.398,18.402c3.809,0,7.442-1.148,10.543-3.332l10.93,11.367
	c0.457,0.477,1.07,0.738,1.731,0.738c0.621,0,1.21-0.238,1.66-0.671C45.844,45.668,45.871,44.148,44.953,43.191L44.953,43.191z
	 M20.023,6.484c7.5,0,13.602,6.102,13.602,13.598c0,7.5-6.102,13.601-13.602,13.601c-7.496,0-13.597-6.101-13.597-13.601
	C6.426,12.586,12.527,6.484,20.023,6.484L20.023,6.484z M20.023,6.484"/>
</svg>
